<?xml version="1.0" encoding="utf-8" standalone="no"?>
<!DOCTYPE svg PUBLIC "-//W3C//DTD SVG 1.1//EN"
  "http://www.w3.org/Graphics/SVG/1.1/DTD/svg11.dtd">
<svg xmlns:xlink="http://www.w3.org/1999/xlink" width="800.39952pt" height="332.42625pt" viewBox="0 0 800.39952 332.42625" xmlns="http://www.w3.org/2000/svg" version="1.1">
 <metadata>
  <rdf:RDF xmlns:dc="http://purl.org/dc/elements/1.1/" xmlns:cc="http://creativecommons.org/ns#" xmlns:rdf="http://www.w3.org/1999/02/22-rdf-syntax-ns#">
   <cc:Work>
    <dc:type rdf:resource="http://purl.org/dc/dcmitype/StillImage"/>
    <dc:date>2026-09-12T01:02:32.392641</dc:date>
    <dc:format>image/svg+xml</dc:format>
    <dc:creator>
     <cc:Agent>
      <dc:title>Matplotlib v3.10.5, https://matplotlib.org/</dc:title>
     </cc:Agent>
    </dc:creator>
   </cc:Work>
  </rdf:RDF>
 </metadata>
 <defs>
  <style type="text/css">*{stroke-linejoin: round; stroke-linecap: butt}</style>
 </defs>
 <g id="figure_1">
  <g id="patch_1">
   <path d="M 0 332.42625 
L 800.39952 332.42625 
L 800.39952 0 
L 0 0 
z
" style="fill: #ffffff"/>
  </g>
  <g id="axes_1">
   <g id="patch_2">
    <path d="M 50.14375 250.133025 
L 421.912845 250.133025 
L 421.912845 39.932355 
L 50.14375 39.932355 
z
" style="fill: #ffffff"/>
   </g>
   <g id="matplotlib.axis_1">
    <g id="xtick_1">
     <g id="line2d_1">
      <defs>
       <path id="m1626244e5e" d="M 0 0 
L 0 3.5 
" style="stroke: #000000; stroke-width: 0.8"/>
      </defs>
      <g>
       <use xlink:href="#m1626244e5e" x="67.042345" y="250.133025" style="stroke: #000000; stroke-width: 0.8"/>
      </g>
     </g>
     <g id="text_1">
      <text style="font-size: 10px; font-family: 'DejaVu Sans', 'Bitstream Vera Sans', 'Computer Modern Sans Serif', 'Lucida Grande', 'Verdana', 'Geneva', 'Lucid', 'Arial', 'Helvetica', 'Avant Garde', sans-serif; text-anchor: middle" x="67.042345" y="264.731462" transform="rotate(-0 67.042345 264.731462)">AA</text>
     </g>
    </g>
    <g id="xtick_2">
     <g id="line2d_2">
      <g>
       <use xlink:href="#m1626244e5e" x="179.699647" y="250.133025" style="stroke: #000000; stroke-width: 0.8"/>
      </g>
     </g>
     <g id="text_2">
      <text style="font-size: 10px; font-family: 'DejaVu Sans', 'Bitstream Vera Sans', 'Computer Modern Sans Serif', 'Lucida Grande', 'Verdana', 'Geneva', 'Lucid', 'Arial', 'Helvetica', 'Avant Garde', sans-serif; text-anchor: middle" x="179.699647" y="264.731462" transform="rotate(-0 179.699647 264.731462)">DA</text>
     </g>
    </g>
    <g id="xtick_3">
     <g id="line2d_3">
      <g>
       <use xlink:href="#m1626244e5e" x="292.356948" y="250.133025" style="stroke: #000000; stroke-width: 0.8"/>
      </g>
     </g>
     <g id="text_3">
      <text style="font-size: 10px; font-family: 'DejaVu Sans', 'Bitstream Vera Sans', 'Computer Modern Sans Serif', 'Lucida Grande', 'Verdana', 'Geneva', 'Lucid', 'Arial', 'Helvetica', 'Avant Garde', sans-serif; text-anchor: middle" x="292.356948" y="264.731462" transform="rotate(-0 292.356948 264.731462)">A down (1–5)</text>
     </g>
    </g>
    <g id="xtick_4">
     <g id="line2d_4">
      <g>
       <use xlink:href="#m1626244e5e" x="405.01425" y="250.133025" style="stroke: #000000; stroke-width: 0.8"/>
      </g>
     </g>
     <g id="text_4">
      <text style="font-size: 10px; font-family: 'DejaVu Sans', 'Bitstream Vera Sans', 'Computer Modern Sans Serif', 'Lucida Grande', 'Verdana', 'Geneva', 'Lucid', 'Arial', 'Helvetica', 'Avant Garde', sans-serif; text-anchor: middle" x="405.01425" y="264.731462" transform="rotate(-0 405.01425 264.731462)">D up (1–5)</text>
     </g>
    </g>
   </g>
   <g id="matplotlib.axis_2">
    <g id="ytick_1">
     <g id="line2d_5">
      <path d="M 50.14375 229.201791 
L 421.912845 229.201791 
" clip-path="url(#p1b57f8bec9)" style="fill: none; stroke: #b0b0b0; stroke-opacity: 0.2; stroke-width: 0.8; stroke-linecap: square"/>
     </g>
     <g id="line2d_6">
      <defs>
       <path id="m33ac69e95c" d="M 0 0 
L -3.5 0 
" style="stroke: #000000; stroke-width: 0.8"/>
      </defs>
      <g>
       <use xlink:href="#m33ac69e95c" x="50.14375" y="229.201791" style="stroke: #000000; stroke-width: 0.8"/>
      </g>
     </g>
     <g id="text_5">
      <text style="font-size: 10px; font-family: 'DejaVu Sans', 'Bitstream Vera Sans', 'Computer Modern Sans Serif', 'Lucida Grande', 'Verdana', 'Geneva', 'Lucid', 'Arial', 'Helvetica', 'Avant Garde', sans-serif; text-anchor: end" x="43.14375" y="233.00101" transform="rotate(-0 43.14375 233.00101)">7.75</text>
     </g>
    </g>
    <g id="ytick_2">
     <g id="line2d_7">
      <path d="M 50.14375 205.358512 
L 421.912845 205.358512 
" clip-path="url(#p1b57f8bec9)" style="fill: none; stroke: #b0b0b0; stroke-opacity: 0.2; stroke-width: 0.8; stroke-linecap: square"/>
     </g>
     <g id="line2d_8">
      <g>
       <use xlink:href="#m33ac69e95c" x="50.14375" y="205.358512" style="stroke: #000000; stroke-width: 0.8"/>
      </g>
     </g>
     <g id="text_6">
      <text style="font-size: 10px; font-family: 'DejaVu Sans', 'Bitstream Vera Sans', 'Computer Modern Sans Serif', 'Lucida Grande', 'Verdana', 'Geneva', 'Lucid', 'Arial', 'Helvetica', 'Avant Garde', sans-serif; text-anchor: end" x="43.14375" y="209.157731" transform="rotate(-0 43.14375 209.157731)">8.00</text>
     </g>
    </g>
    <g id="ytick_3">
     <g id="line2d_9">
      <path d="M 50.14375 181.515233 
L 421.912845 181.515233 
" clip-path="url(#p1b57f8bec9)" style="fill: none; stroke: #b0b0b0; stroke-opacity: 0.2; stroke-width: 0.8; stroke-linecap: square"/>
     </g>
     <g id="line2d_10">
      <g>
       <use xlink:href="#m33ac69e95c" x="50.14375" y="181.515233" style="stroke: #000000; stroke-width: 0.8"/>
      </g>
     </g>
     <g id="text_7">
      <text style="font-size: 10px; font-family: 'DejaVu Sans', 'Bitstream Vera Sans', 'Computer Modern Sans Serif', 'Lucida Grande', 'Verdana', 'Geneva', 'Lucid', 'Arial', 'Helvetica', 'Avant Garde', sans-serif; text-anchor: end" x="43.14375" y="185.314452" transform="rotate(-0 43.14375 185.314452)">8.25</text>
     </g>
    </g>
    <g id="ytick_4">
     <g id="line2d_11">
      <path d="M 50.14375 157.671954 
L 421.912845 157.671954 
" clip-path="url(#p1b57f8bec9)" style="fill: none; stroke: #b0b0b0; stroke-opacity: 0.2; stroke-width: 0.8; stroke-linecap: square"/>
     </g>
     <g id="line2d_12">
      <g>
       <use xlink:href="#m33ac69e95c" x="50.14375" y="157.671954" style="stroke: #000000; stroke-width: 0.8"/>
      </g>
     </g>
     <g id="text_8">
      <text style="font-size: 10px; font-family: 'DejaVu Sans', 'Bitstream Vera Sans', 'Computer Modern Sans Serif', 'Lucida Grande', 'Verdana', 'Geneva', 'Lucid', 'Arial', 'Helvetica', 'Avant Garde', sans-serif; text-anchor: end" x="43.14375" y="161.471173" transform="rotate(-0 43.14375 161.471173)">8.50</text>
     </g>
    </g>
    <g id="ytick_5">
     <g id="line2d_13">
      <path d="M 50.14375 133.828675 
L 421.912845 133.828675 
" clip-path="url(#p1b57f8bec9)" style="fill: none; stroke: #b0b0b0; stroke-opacity: 0.2; stroke-width: 0.8; stroke-linecap: square"/>
     </g>
     <g id="line2d_14">
      <g>
       <use xlink:href="#m33ac69e95c" x="50.14375" y="133.828675" style="stroke: #000000; stroke-width: 0.8"/>
      </g>
     </g>
     <g id="text_9">
      <text style="font-size: 10px; font-family: 'DejaVu Sans', 'Bitstream Vera Sans', 'Computer Modern Sans Serif', 'Lucida Grande', 'Verdana', 'Geneva', 'Lucid', 'Arial', 'Helvetica', 'Avant Garde', sans-serif; text-anchor: end" x="43.14375" y="137.627894" transform="rotate(-0 43.14375 137.627894)">8.75</text>
     </g>
    </g>
    <g id="ytick_6">
     <g id="line2d_15">
      <path d="M 50.14375 109.985396 
L 421.912845 109.985396 
" clip-path="url(#p1b57f8bec9)" style="fill: none; stroke: #b0b0b0; stroke-opacity: 0.2; stroke-width: 0.8; stroke-linecap: square"/>
     </g>
     <g id="line2d_16">
      <g>
       <use xlink:href="#m33ac69e95c" x="50.14375" y="109.985396" style="stroke: #000000; stroke-width: 0.8"/>
      </g>
     </g>
     <g id="text_10">
      <text style="font-size: 10px; font-family: 'DejaVu Sans', 'Bitstream Vera Sans', 'Computer Modern Sans Serif', 'Lucida Grande', 'Verdana', 'Geneva', 'Lucid', 'Arial', 'Helvetica', 'Avant Garde', sans-serif; text-anchor: end" x="43.14375" y="113.784615" transform="rotate(-0 43.14375 113.784615)">9.00</text>
     </g>
    </g>
    <g id="ytick_7">
     <g id="line2d_17">
      <path d="M 50.14375 86.142117 
L 421.912845 86.142117 
" clip-path="url(#p1b57f8bec9)" style="fill: none; stroke: #b0b0b0; stroke-opacity: 0.2; stroke-width: 0.8; stroke-linecap: square"/>
     </g>
     <g id="line2d_18">
      <g>
       <use xlink:href="#m33ac69e95c" x="50.14375" y="86.142117" style="stroke: #000000; stroke-width: 0.8"/>
      </g>
     </g>
     <g id="text_11">
      <text style="font-size: 10px; font-family: 'DejaVu Sans', 'Bitstream Vera Sans', 'Computer Modern Sans Serif', 'Lucida Grande', 'Verdana', 'Geneva', 'Lucid', 'Arial', 'Helvetica', 'Avant Garde', sans-serif; text-anchor: end" x="43.14375" y="89.941336" transform="rotate(-0 43.14375 89.941336)">9.25</text>
     </g>
    </g>
    <g id="ytick_8">
     <g id="line2d_19">
      <path d="M 50.14375 62.298838 
L 421.912845 62.298838 
" clip-path="url(#p1b57f8bec9)" style="fill: none; stroke: #b0b0b0; stroke-opacity: 0.2; stroke-width: 0.8; stroke-linecap: square"/>
     </g>
     <g id="line2d_20">
      <g>
       <use xlink:href="#m33ac69e95c" x="50.14375" y="62.298838" style="stroke: #000000; stroke-width: 0.8"/>
      </g>
     </g>
     <g id="text_12">
      <text style="font-size: 10px; font-family: 'DejaVu Sans', 'Bitstream Vera Sans', 'Computer Modern Sans Serif', 'Lucida Grande', 'Verdana', 'Geneva', 'Lucid', 'Arial', 'Helvetica', 'Avant Garde', sans-serif; text-anchor: end" x="43.14375" y="66.098057" transform="rotate(-0 43.14375 66.098057)">9.50</text>
     </g>
    </g>
    <g id="text_13">
     <text style="font-size: 10px; font-family: 'DejaVu Sans', 'Bitstream Vera Sans', 'Computer Modern Sans Serif', 'Lucida Grande', 'Verdana', 'Geneva', 'Lucid', 'Arial', 'Helvetica', 'Avant Garde', sans-serif; text-anchor: middle" x="14.798438" y="145.03269" transform="rotate(-90 14.798438 145.03269)">Geometric mean of three FID50k blocks</text>
    </g>
   </g>
   <g id="line2d_21">
    <path d="M 67.042345 95.917377 
L 179.699647 174.253779 
L 292.356948 160.081935 
L 405.01425 86.344377 
" clip-path="url(#p1b57f8bec9)" style="fill: none; stroke: #1f77b4; stroke-opacity: 0.8; stroke-linecap: square"/>
    <defs>
     <path id="m4b23501c02" d="M 0 2 
C 0.530406 2 1.03916 1.789267 1.414214 1.414214 
C 1.789267 1.03916 2 0.530406 2 0 
C 2 -0.530406 1.789267 -1.03916 1.414214 -1.414214 
C 1.03916 -1.789267 0.530406 -2 0 -2 
C -0.530406 -2 -1.03916 -1.789267 -1.414214 -1.414214 
C -1.789267 -1.03916 -2 -0.530406 -2 0 
C -2 0.530406 -1.789267 1.03916 -1.414214 1.414214 
C -1.03916 1.789267 -0.530406 2 0 2 
z
" style="stroke: #1f77b4; stroke-opacity: 0.8"/>
    </defs>
    <g clip-path="url(#p1b57f8bec9)">
     <use xlink:href="#m4b23501c02" x="67.042345" y="95.917377" style="fill: #1f77b4; fill-opacity: 0.8; stroke: #1f77b4; stroke-opacity: 0.8"/>
     <use xlink:href="#m4b23501c02" x="179.699647" y="174.253779" style="fill: #1f77b4; fill-opacity: 0.8; stroke: #1f77b4; stroke-opacity: 0.8"/>
     <use xlink:href="#m4b23501c02" x="292.356948" y="160.081935" style="fill: #1f77b4; fill-opacity: 0.8; stroke: #1f77b4; stroke-opacity: 0.8"/>
     <use xlink:href="#m4b23501c02" x="405.01425" y="86.344377" style="fill: #1f77b4; fill-opacity: 0.8; stroke: #1f77b4; stroke-opacity: 0.8"/>
    </g>
   </g>
   <g id="line2d_22">
    <path d="M 67.042345 166.627196 
L 179.699647 216.038792 
L 292.356948 181.240474 
L 405.01425 187.3165 
" clip-path="url(#p1b57f8bec9)" style="fill: none; stroke: #ff7f0e; stroke-opacity: 0.8; stroke-linecap: square"/>
    <defs>
     <path id="m00b0877986" d="M 0 2 
C 0.530406 2 1.03916 1.789267 1.414214 1.414214 
C 1.789267 1.03916 2 0.530406 2 0 
C 2 -0.530406 1.789267 -1.03916 1.414214 -1.414214 
C 1.03916 -1.789267 0.530406 -2 0 -2 
C -0.530406 -2 -1.03916 -1.789267 -1.414214 -1.414214 
C -1.789267 -1.03916 -2 -0.530406 -2 0 
C -2 0.530406 -1.789267 1.03916 -1.414214 1.414214 
C -1.03916 1.789267 -0.530406 2 0 2 
z
" style="stroke: #ff7f0e; stroke-opacity: 0.8"/>
    </defs>
    <g clip-path="url(#p1b57f8bec9)">
     <use xlink:href="#m00b0877986" x="67.042345" y="166.627196" style="fill: #ff7f0e; fill-opacity: 0.8; stroke: #ff7f0e; stroke-opacity: 0.8"/>
     <use xlink:href="#m00b0877986" x="179.699647" y="216.038792" style="fill: #ff7f0e; fill-opacity: 0.8; stroke: #ff7f0e; stroke-opacity: 0.8"/>
     <use xlink:href="#m00b0877986" x="292.356948" y="181.240474" style="fill: #ff7f0e; fill-opacity: 0.8; stroke: #ff7f0e; stroke-opacity: 0.8"/>
     <use xlink:href="#m00b0877986" x="405.01425" y="187.3165" style="fill: #ff7f0e; fill-opacity: 0.8; stroke: #ff7f0e; stroke-opacity: 0.8"/>
    </g>
   </g>
   <g id="line2d_23">
    <path d="M 67.042345 208.790303 
L 179.699647 140.230637 
L 292.356948 159.855149 
L 405.01425 198.410958 
" clip-path="url(#p1b57f8bec9)" style="fill: none; stroke: #2ca02c; stroke-opacity: 0.8; stroke-linecap: square"/>
    <defs>
     <path id="m809f3bb6a8" d="M 0 2 
C 0.530406 2 1.03916 1.789267 1.414214 1.414214 
C 1.789267 1.03916 2 0.530406 2 0 
C 2 -0.530406 1.789267 -1.03916 1.414214 -1.414214 
C 1.03916 -1.789267 0.530406 -2 0 -2 
C -0.530406 -2 -1.03916 -1.789267 -1.414214 -1.414214 
C -1.789267 -1.03916 -2 -0.530406 -2 0 
C -2 0.530406 -1.789267 1.03916 -1.414214 1.414214 
C -1.03916 1.789267 -0.530406 2 0 2 
z
" style="stroke: #2ca02c; stroke-opacity: 0.8"/>
    </defs>
    <g clip-path="url(#p1b57f8bec9)">
     <use xlink:href="#m809f3bb6a8" x="67.042345" y="208.790303" style="fill: #2ca02c; fill-opacity: 0.8; stroke: #2ca02c; stroke-opacity: 0.8"/>
     <use xlink:href="#m809f3bb6a8" x="179.699647" y="140.230637" style="fill: #2ca02c; fill-opacity: 0.8; stroke: #2ca02c; stroke-opacity: 0.8"/>
     <use xlink:href="#m809f3bb6a8" x="292.356948" y="159.855149" style="fill: #2ca02c; fill-opacity: 0.8; stroke: #2ca02c; stroke-opacity: 0.8"/>
     <use xlink:href="#m809f3bb6a8" x="405.01425" y="198.410958" style="fill: #2ca02c; fill-opacity: 0.8; stroke: #2ca02c; stroke-opacity: 0.8"/>
    </g>
   </g>
   <g id="line2d_24">
    <path d="M 67.042345 68.166408 
L 179.699647 71.384105 
L 292.356948 85.956575 
L 405.01425 118.656654 
" clip-path="url(#p1b57f8bec9)" style="fill: none; stroke: #d62728; stroke-opacity: 0.8; stroke-linecap: square"/>
    <defs>
     <path id="m800f8fdf8e" d="M 0 2 
C 0.530406 2 1.03916 1.789267 1.414214 1.414214 
C 1.789267 1.03916 2 0.530406 2 0 
C 2 -0.530406 1.789267 -1.03916 1.414214 -1.414214 
C 1.03916 -1.789267 0.530406 -2 0 -2 
C -0.530406 -2 -1.03916 -1.789267 -1.414214 -1.414214 
C -1.789267 -1.03916 -2 -0.530406 -2 0 
C -2 0.530406 -1.789267 1.03916 -1.414214 1.414214 
C -1.03916 1.789267 -0.530406 2 0 2 
z
" style="stroke: #d62728; stroke-opacity: 0.8"/>
    </defs>
    <g clip-path="url(#p1b57f8bec9)">
     <use xlink:href="#m800f8fdf8e" x="67.042345" y="68.166408" style="fill: #d62728; fill-opacity: 0.8; stroke: #d62728; stroke-opacity: 0.8"/>
     <use xlink:href="#m800f8fdf8e" x="179.699647" y="71.384105" style="fill: #d62728; fill-opacity: 0.8; stroke: #d62728; stroke-opacity: 0.8"/>
     <use xlink:href="#m800f8fdf8e" x="292.356948" y="85.956575" style="fill: #d62728; fill-opacity: 0.8; stroke: #d62728; stroke-opacity: 0.8"/>
     <use xlink:href="#m800f8fdf8e" x="405.01425" y="118.656654" style="fill: #d62728; fill-opacity: 0.8; stroke: #d62728; stroke-opacity: 0.8"/>
    </g>
   </g>
   <g id="line2d_25">
    <path d="M 67.042345 225.973501 
L 179.699647 240.578449 
L 292.356948 203.298098 
L 405.01425 190.312653 
" clip-path="url(#p1b57f8bec9)" style="fill: none; stroke: #9467bd; stroke-opacity: 0.8; stroke-linecap: square"/>
    <defs>
     <path id="m3f72873ee1" d="M 0 2 
C 0.530406 2 1.03916 1.789267 1.414214 1.414214 
C 1.789267 1.03916 2 0.530406 2 0 
C 2 -0.530406 1.789267 -1.03916 1.414214 -1.414214 
C 1.03916 -1.789267 0.530406 -2 0 -2 
C -0.530406 -2 -1.03916 -1.789267 -1.414214 -1.414214 
C -1.789267 -1.03916 -2 -0.530406 -2 0 
C -2 0.530406 -1.789267 1.03916 -1.414214 1.414214 
C -1.03916 1.789267 -0.530406 2 0 2 
z
" style="stroke: #9467bd; stroke-opacity: 0.8"/>
    </defs>
    <g clip-path="url(#p1b57f8bec9)">
     <use xlink:href="#m3f72873ee1" x="67.042345" y="225.973501" style="fill: #9467bd; fill-opacity: 0.8; stroke: #9467bd; stroke-opacity: 0.8"/>
     <use xlink:href="#m3f72873ee1" x="179.699647" y="240.578449" style="fill: #9467bd; fill-opacity: 0.8; stroke: #9467bd; stroke-opacity: 0.8"/>
     <use xlink:href="#m3f72873ee1" x="292.356948" y="203.298098" style="fill: #9467bd; fill-opacity: 0.8; stroke: #9467bd; stroke-opacity: 0.8"/>
     <use xlink:href="#m3f72873ee1" x="405.01425" y="190.312653" style="fill: #9467bd; fill-opacity: 0.8; stroke: #9467bd; stroke-opacity: 0.8"/>
    </g>
   </g>
   <g id="line2d_26">
    <path d="M 67.042345 166.615329 
L 179.699647 141.516726 
L 292.356948 146.372538 
L 405.01425 157.250097 
" clip-path="url(#p1b57f8bec9)" style="fill: none; stroke: #8c564b; stroke-opacity: 0.8; stroke-linecap: square"/>
    <defs>
     <path id="m0673d6092f" d="M 0 2 
C 0.530406 2 1.03916 1.789267 1.414214 1.414214 
C 1.789267 1.03916 2 0.530406 2 0 
C 2 -0.530406 1.789267 -1.03916 1.414214 -1.414214 
C 1.03916 -1.789267 0.530406 -2 0 -2 
C -0.530406 -2 -1.03916 -1.789267 -1.414214 -1.414214 
C -1.789267 -1.03916 -2 -0.530406 -2 0 
C -2 0.530406 -1.789267 1.03916 -1.414214 1.414214 
C -1.03916 1.789267 -0.530406 2 0 2 
z
" style="stroke: #8c564b; stroke-opacity: 0.8"/>
    </defs>
    <g clip-path="url(#p1b57f8bec9)">
     <use xlink:href="#m0673d6092f" x="67.042345" y="166.615329" style="fill: #8c564b; fill-opacity: 0.8; stroke: #8c564b; stroke-opacity: 0.8"/>
     <use xlink:href="#m0673d6092f" x="179.699647" y="141.516726" style="fill: #8c564b; fill-opacity: 0.8; stroke: #8c564b; stroke-opacity: 0.8"/>
     <use xlink:href="#m0673d6092f" x="292.356948" y="146.372538" style="fill: #8c564b; fill-opacity: 0.8; stroke: #8c564b; stroke-opacity: 0.8"/>
     <use xlink:href="#m0673d6092f" x="405.01425" y="157.250097" style="fill: #8c564b; fill-opacity: 0.8; stroke: #8c564b; stroke-opacity: 0.8"/>
    </g>
   </g>
   <g id="line2d_27">
    <path d="M 67.042345 68.787448 
L 179.699647 70.116905 
L 292.356948 49.486931 
L 405.01425 65.807084 
" clip-path="url(#p1b57f8bec9)" style="fill: none; stroke: #e377c2; stroke-opacity: 0.8; stroke-linecap: square"/>
    <defs>
     <path id="md2567da014" d="M 0 2 
C 0.530406 2 1.03916 1.789267 1.414214 1.414214 
C 1.789267 1.03916 2 0.530406 2 0 
C 2 -0.530406 1.789267 -1.03916 1.414214 -1.414214 
C 1.03916 -1.789267 0.530406 -2 0 -2 
C -0.530406 -2 -1.03916 -1.789267 -1.414214 -1.414214 
C -1.789267 -1.03916 -2 -0.530406 -2 0 
C -2 0.530406 -1.789267 1.03916 -1.414214 1.414214 
C -1.03916 1.789267 -0.530406 2 0 2 
z
" style="stroke: #e377c2; stroke-opacity: 0.8"/>
    </defs>
    <g clip-path="url(#p1b57f8bec9)">
     <use xlink:href="#md2567da014" x="67.042345" y="68.787448" style="fill: #e377c2; fill-opacity: 0.8; stroke: #e377c2; stroke-opacity: 0.8"/>
     <use xlink:href="#md2567da014" x="179.699647" y="70.116905" style="fill: #e377c2; fill-opacity: 0.8; stroke: #e377c2; stroke-opacity: 0.8"/>
     <use xlink:href="#md2567da014" x="292.356948" y="49.486931" style="fill: #e377c2; fill-opacity: 0.8; stroke: #e377c2; stroke-opacity: 0.8"/>
     <use xlink:href="#md2567da014" x="405.01425" y="65.807084" style="fill: #e377c2; fill-opacity: 0.8; stroke: #e377c2; stroke-opacity: 0.8"/>
    </g>
   </g>
   <g id="line2d_28">
    <path d="M 67.042345 88.102258 
L 179.699647 93.296232 
L 292.356948 76.390361 
L 405.01425 60.243489 
" clip-path="url(#p1b57f8bec9)" style="fill: none; stroke: #7f7f7f; stroke-opacity: 0.8; stroke-linecap: square"/>
    <defs>
     <path id="m97214cabff" d="M 0 2 
C 0.530406 2 1.03916 1.789267 1.414214 1.414214 
C 1.789267 1.03916 2 0.530406 2 0 
C 2 -0.530406 1.789267 -1.03916 1.414214 -1.414214 
C 1.03916 -1.789267 0.530406 -2 0 -2 
C -0.530406 -2 -1.03916 -1.789267 -1.414214 -1.414214 
C -1.789267 -1.03916 -2 -0.530406 -2 0 
C -2 0.530406 -1.789267 1.03916 -1.414214 1.414214 
C -1.03916 1.789267 -0.530406 2 0 2 
z
" style="stroke: #7f7f7f; stroke-opacity: 0.8"/>
    </defs>
    <g clip-path="url(#p1b57f8bec9)">
     <use xlink:href="#m97214cabff" x="67.042345" y="88.102258" style="fill: #7f7f7f; fill-opacity: 0.8; stroke: #7f7f7f; stroke-opacity: 0.8"/>
     <use xlink:href="#m97214cabff" x="179.699647" y="93.296232" style="fill: #7f7f7f; fill-opacity: 0.8; stroke: #7f7f7f; stroke-opacity: 0.8"/>
     <use xlink:href="#m97214cabff" x="292.356948" y="76.390361" style="fill: #7f7f7f; fill-opacity: 0.8; stroke: #7f7f7f; stroke-opacity: 0.8"/>
     <use xlink:href="#m97214cabff" x="405.01425" y="60.243489" style="fill: #7f7f7f; fill-opacity: 0.8; stroke: #7f7f7f; stroke-opacity: 0.8"/>
    </g>
   </g>
   <g id="patch_3">
    <path d="M 50.14375 250.133025 
L 50.14375 39.932355 
" style="fill: none; stroke: #000000; stroke-width: 0.8; stroke-linejoin: miter; stroke-linecap: square"/>
   </g>
   <g id="patch_4">
    <path d="M 50.14375 250.133025 
L 421.912845 250.133025 
" style="fill: none; stroke: #000000; stroke-width: 0.8; stroke-linejoin: miter; stroke-linecap: square"/>
   </g>
   <g id="text_14">
    <text style="font-size: 12px; font-family: 'DejaVu Sans', 'Bitstream Vera Sans', 'Computer Modern Sans Serif', 'Lucida Grande', 'Verdana', 'Geneva', 'Lucid', 'Arial', 'Helvetica', 'Avant Garde', sans-serif; text-anchor: middle" x="236.028298" y="33.932355" transform="rotate(-0 236.028298 33.932355)">Fresh q128: all eight training seeds</text>
   </g>
   <g id="legend_1">
    <g id="patch_5">
     <path d="M 135.088298 325.22625 
L 336.968298 325.22625 
Q 338.568298 325.22625 338.568298 323.62625 
L 338.568298 287.263125 
Q 338.568298 285.663125 336.968298 285.663125 
L 135.088298 285.663125 
Q 133.488298 285.663125 133.488298 287.263125 
L 133.488298 323.62625 
Q 133.488298 325.22625 135.088298 325.22625 
z
" style="fill: #ffffff; opacity: 0.8; stroke: #cccccc; stroke-linejoin: miter"/>
    </g>
    <g id="text_15">
     <text style="font-size: 10px; font-family: 'DejaVu Sans', 'Bitstream Vera Sans', 'Computer Modern Sans Serif', 'Lucida Grande', 'Verdana', 'Geneva', 'Lucid', 'Arial', 'Helvetica', 'Avant Garde', sans-serif; text-anchor: start" x="202.781423" y="296.461563" transform="rotate(-0 202.781423 296.461563)">Training seed</text>
    </g>
    <g id="line2d_29">
     <path d="M 136.688298 305.82 
L 144.688298 305.82 
L 152.688298 305.82 
" style="fill: none; stroke: #1f77b4; stroke-opacity: 0.8; stroke-linecap: square"/>
     <g>
      <use xlink:href="#m4b23501c02" x="144.688298" y="305.82" style="fill: #1f77b4; fill-opacity: 0.8; stroke: #1f77b4; stroke-opacity: 0.8"/>
     </g>
    </g>
    <g id="text_16">
     <text style="font-size: 8px; font-family: 'DejaVu Sans', 'Bitstream Vera Sans', 'Computer Modern Sans Serif', 'Lucida Grande', 'Verdana', 'Geneva', 'Lucid', 'Arial', 'Helvetica', 'Avant Garde', sans-serif; text-anchor: start" x="159.088298" y="308.62" transform="rotate(-0 159.088298 308.62)">301</text>
    </g>
    <g id="line2d_30">
     <path d="M 136.688298 317.5625 
L 144.688298 317.5625 
L 152.688298 317.5625 
" style="fill: none; stroke: #ff7f0e; stroke-opacity: 0.8; stroke-linecap: square"/>
     <g>
      <use xlink:href="#m00b0877986" x="144.688298" y="317.5625" style="fill: #ff7f0e; fill-opacity: 0.8; stroke: #ff7f0e; stroke-opacity: 0.8"/>
     </g>
    </g>
    <g id="text_17">
     <text style="font-size: 8px; font-family: 'DejaVu Sans', 'Bitstream Vera Sans', 'Computer Modern Sans Serif', 'Lucida Grande', 'Verdana', 'Geneva', 'Lucid', 'Arial', 'Helvetica', 'Avant Garde', sans-serif; text-anchor: start" x="159.088298" y="320.3625" transform="rotate(-0 159.088298 320.3625)">302</text>
    </g>
    <g id="line2d_31">
     <path d="M 190.358298 305.82 
L 198.358298 305.82 
L 206.358298 305.82 
" style="fill: none; stroke: #2ca02c; stroke-opacity: 0.8; stroke-linecap: square"/>
     <g>
      <use xlink:href="#m809f3bb6a8" x="198.358298" y="305.82" style="fill: #2ca02c; fill-opacity: 0.8; stroke: #2ca02c; stroke-opacity: 0.8"/>
     </g>
    </g>
    <g id="text_18">
     <text style="font-size: 8px; font-family: 'DejaVu Sans', 'Bitstream Vera Sans', 'Computer Modern Sans Serif', 'Lucida Grande', 'Verdana', 'Geneva', 'Lucid', 'Arial', 'Helvetica', 'Avant Garde', sans-serif; text-anchor: start" x="212.758298" y="308.62" transform="rotate(-0 212.758298 308.62)">303</text>
    </g>
    <g id="line2d_32">
     <path d="M 190.358298 317.5625 
L 198.358298 317.5625 
L 206.358298 317.5625 
" style="fill: none; stroke: #d62728; stroke-opacity: 0.8; stroke-linecap: square"/>
     <g>
      <use xlink:href="#m800f8fdf8e" x="198.358298" y="317.5625" style="fill: #d62728; fill-opacity: 0.8; stroke: #d62728; stroke-opacity: 0.8"/>
     </g>
    </g>
    <g id="text_19">
     <text style="font-size: 8px; font-family: 'DejaVu Sans', 'Bitstream Vera Sans', 'Computer Modern Sans Serif', 'Lucida Grande', 'Verdana', 'Geneva', 'Lucid', 'Arial', 'Helvetica', 'Avant Garde', sans-serif; text-anchor: start" x="212.758298" y="320.3625" transform="rotate(-0 212.758298 320.3625)">304</text>
    </g>
    <g id="line2d_33">
     <path d="M 244.028298 305.82 
L 252.028298 305.82 
L 260.028298 305.82 
" style="fill: none; stroke: #9467bd; stroke-opacity: 0.8; stroke-linecap: square"/>
     <g>
      <use xlink:href="#m3f72873ee1" x="252.028298" y="305.82" style="fill: #9467bd; fill-opacity: 0.8; stroke: #9467bd; stroke-opacity: 0.8"/>
     </g>
    </g>
    <g id="text_20">
     <text style="font-size: 8px; font-family: 'DejaVu Sans', 'Bitstream Vera Sans', 'Computer Modern Sans Serif', 'Lucida Grande', 'Verdana', 'Geneva', 'Lucid', 'Arial', 'Helvetica', 'Avant Garde', sans-serif; text-anchor: start" x="266.428298" y="308.62" transform="rotate(-0 266.428298 308.62)">305</text>
    </g>
    <g id="line2d_34">
     <path d="M 244.028298 317.5625 
L 252.028298 317.5625 
L 260.028298 317.5625 
" style="fill: none; stroke: #8c564b; stroke-opacity: 0.8; stroke-linecap: square"/>
     <g>
      <use xlink:href="#m0673d6092f" x="252.028298" y="317.5625" style="fill: #8c564b; fill-opacity: 0.8; stroke: #8c564b; stroke-opacity: 0.8"/>
     </g>
    </g>
    <g id="text_21">
     <text style="font-size: 8px; font-family: 'DejaVu Sans', 'Bitstream Vera Sans', 'Computer Modern Sans Serif', 'Lucida Grande', 'Verdana', 'Geneva', 'Lucid', 'Arial', 'Helvetica', 'Avant Garde', sans-serif; text-anchor: start" x="266.428298" y="320.3625" transform="rotate(-0 266.428298 320.3625)">306</text>
    </g>
    <g id="line2d_35">
     <path d="M 297.698298 305.82 
L 305.698298 305.82 
L 313.698298 305.82 
" style="fill: none; stroke: #e377c2; stroke-opacity: 0.8; stroke-linecap: square"/>
     <g>
      <use xlink:href="#md2567da014" x="305.698298" y="305.82" style="fill: #e377c2; fill-opacity: 0.8; stroke: #e377c2; stroke-opacity: 0.8"/>
     </g>
    </g>
    <g id="text_22">
     <text style="font-size: 8px; font-family: 'DejaVu Sans', 'Bitstream Vera Sans', 'Computer Modern Sans Serif', 'Lucida Grande', 'Verdana', 'Geneva', 'Lucid', 'Arial', 'Helvetica', 'Avant Garde', sans-serif; text-anchor: start" x="320.098298" y="308.62" transform="rotate(-0 320.098298 308.62)">307</text>
    </g>
    <g id="line2d_36">
     <path d="M 297.698298 317.5625 
L 305.698298 317.5625 
L 313.698298 317.5625 
" style="fill: none; stroke: #7f7f7f; stroke-opacity: 0.8; stroke-linecap: square"/>
     <g>
      <use xlink:href="#m97214cabff" x="305.698298" y="317.5625" style="fill: #7f7f7f; fill-opacity: 0.8; stroke: #7f7f7f; stroke-opacity: 0.8"/>
     </g>
    </g>
    <g id="text_23">
     <text style="font-size: 8px; font-family: 'DejaVu Sans', 'Bitstream Vera Sans', 'Computer Modern Sans Serif', 'Lucida Grande', 'Verdana', 'Geneva', 'Lucid', 'Arial', 'Helvetica', 'Avant Garde', sans-serif; text-anchor: start" x="320.098298" y="320.3625" transform="rotate(-0 320.098298 320.3625)">308</text>
    </g>
   </g>
  </g>
  <g id="axes_2">
   <g id="patch_6">
    <path d="M 517.815005 250.133025 
L 793.19952 250.133025 
L 793.19952 39.932355 
L 517.815005 39.932355 
z
" style="fill: #ffffff"/>
   </g>
   <g id="matplotlib.axis_3">
    <g id="xtick_5">
     <g id="line2d_37">
      <path d="M 519.424779 250.133025 
L 519.424779 39.932355 
" clip-path="url(#pfcb5f70d1d)" style="fill: none; stroke: #b0b0b0; stroke-opacity: 0.2; stroke-width: 0.8; stroke-linecap: square"/>
     </g>
     <g id="line2d_38">
      <g>
       <use xlink:href="#m1626244e5e" x="519.424779" y="250.133025" style="stroke: #000000; stroke-width: 0.8"/>
      </g>
     </g>
     <g id="text_24">
      <text style="font-size: 10px; font-family: 'DejaVu Sans', 'Bitstream Vera Sans', 'Computer Modern Sans Serif', 'Lucida Grande', 'Verdana', 'Geneva', 'Lucid', 'Arial', 'Helvetica', 'Avant Garde', sans-serif; text-anchor: middle" x="519.424779" y="264.731462" transform="rotate(-0 519.424779 264.731462)">−0.06</text>
     </g>
    </g>
    <g id="xtick_6">
     <g id="line2d_39">
      <path d="M 561.702789 250.133025 
L 561.702789 39.932355 
" clip-path="url(#pfcb5f70d1d)" style="fill: none; stroke: #b0b0b0; stroke-opacity: 0.2; stroke-width: 0.8; stroke-linecap: square"/>
     </g>
     <g id="line2d_40">
      <g>
       <use xlink:href="#m1626244e5e" x="561.702789" y="250.133025" style="stroke: #000000; stroke-width: 0.8"/>
      </g>
     </g>
     <g id="text_25">
      <text style="font-size: 10px; font-family: 'DejaVu Sans', 'Bitstream Vera Sans', 'Computer Modern Sans Serif', 'Lucida Grande', 'Verdana', 'Geneva', 'Lucid', 'Arial', 'Helvetica', 'Avant Garde', sans-serif; text-anchor: middle" x="561.702789" y="264.731462" transform="rotate(-0 561.702789 264.731462)">−0.04</text>
     </g>
    </g>
    <g id="xtick_7">
     <g id="line2d_41">
      <path d="M 603.980799 250.133025 
L 603.980799 39.932355 
" clip-path="url(#pfcb5f70d1d)" style="fill: none; stroke: #b0b0b0; stroke-opacity: 0.2; stroke-width: 0.8; stroke-linecap: square"/>
     </g>
     <g id="line2d_42">
      <g>
       <use xlink:href="#m1626244e5e" x="603.980799" y="250.133025" style="stroke: #000000; stroke-width: 0.8"/>
      </g>
     </g>
     <g id="text_26">
      <text style="font-size: 10px; font-family: 'DejaVu Sans', 'Bitstream Vera Sans', 'Computer Modern Sans Serif', 'Lucida Grande', 'Verdana', 'Geneva', 'Lucid', 'Arial', 'Helvetica', 'Avant Garde', sans-serif; text-anchor: middle" x="603.980799" y="264.731462" transform="rotate(-0 603.980799 264.731462)">−0.02</text>
     </g>
    </g>
    <g id="xtick_8">
     <g id="line2d_43">
      <path d="M 646.25881 250.133025 
L 646.25881 39.932355 
" clip-path="url(#pfcb5f70d1d)" style="fill: none; stroke: #b0b0b0; stroke-opacity: 0.2; stroke-width: 0.8; stroke-linecap: square"/>
     </g>
     <g id="line2d_44">
      <g>
       <use xlink:href="#m1626244e5e" x="646.25881" y="250.133025" style="stroke: #000000; stroke-width: 0.8"/>
      </g>
     </g>
     <g id="text_27">
      <text style="font-size: 10px; font-family: 'DejaVu Sans', 'Bitstream Vera Sans', 'Computer Modern Sans Serif', 'Lucida Grande', 'Verdana', 'Geneva', 'Lucid', 'Arial', 'Helvetica', 'Avant Garde', sans-serif; text-anchor: middle" x="646.25881" y="264.731462" transform="rotate(-0 646.25881 264.731462)">0.00</text>
     </g>
    </g>
    <g id="xtick_9">
     <g id="line2d_45">
      <path d="M 688.53682 250.133025 
L 688.53682 39.932355 
" clip-path="url(#pfcb5f70d1d)" style="fill: none; stroke: #b0b0b0; stroke-opacity: 0.2; stroke-width: 0.8; stroke-linecap: square"/>
     </g>
     <g id="line2d_46">
      <g>
       <use xlink:href="#m1626244e5e" x="688.53682" y="250.133025" style="stroke: #000000; stroke-width: 0.8"/>
      </g>
     </g>
     <g id="text_28">
      <text style="font-size: 10px; font-family: 'DejaVu Sans', 'Bitstream Vera Sans', 'Computer Modern Sans Serif', 'Lucida Grande', 'Verdana', 'Geneva', 'Lucid', 'Arial', 'Helvetica', 'Avant Garde', sans-serif; text-anchor: middle" x="688.53682" y="264.731462" transform="rotate(-0 688.53682 264.731462)">0.02</text>
     </g>
    </g>
    <g id="xtick_10">
     <g id="line2d_47">
      <path d="M 730.814831 250.133025 
L 730.814831 39.932355 
" clip-path="url(#pfcb5f70d1d)" style="fill: none; stroke: #b0b0b0; stroke-opacity: 0.2; stroke-width: 0.8; stroke-linecap: square"/>
     </g>
     <g id="line2d_48">
      <g>
       <use xlink:href="#m1626244e5e" x="730.814831" y="250.133025" style="stroke: #000000; stroke-width: 0.8"/>
      </g>
     </g>
     <g id="text_29">
      <text style="font-size: 10px; font-family: 'DejaVu Sans', 'Bitstream Vera Sans', 'Computer Modern Sans Serif', 'Lucida Grande', 'Verdana', 'Geneva', 'Lucid', 'Arial', 'Helvetica', 'Avant Garde', sans-serif; text-anchor: middle" x="730.814831" y="264.731462" transform="rotate(-0 730.814831 264.731462)">0.04</text>
     </g>
    </g>
    <g id="xtick_11">
     <g id="line2d_49">
      <path d="M 773.092841 250.133025 
L 773.092841 39.932355 
" clip-path="url(#pfcb5f70d1d)" style="fill: none; stroke: #b0b0b0; stroke-opacity: 0.2; stroke-width: 0.8; stroke-linecap: square"/>
     </g>
     <g id="line2d_50">
      <g>
       <use xlink:href="#m1626244e5e" x="773.092841" y="250.133025" style="stroke: #000000; stroke-width: 0.8"/>
      </g>
     </g>
     <g id="text_30">
      <text style="font-size: 10px; font-family: 'DejaVu Sans', 'Bitstream Vera Sans', 'Computer Modern Sans Serif', 'Lucida Grande', 'Verdana', 'Geneva', 'Lucid', 'Arial', 'Helvetica', 'Avant Garde', sans-serif; text-anchor: middle" x="773.092841" y="264.731462" transform="rotate(-0 773.092841 264.731462)">0.06</text>
     </g>
    </g>
    <g id="text_31">
     <text style="font-size: 10px; font-family: 'DejaVu Sans', 'Bitstream Vera Sans', 'Computer Modern Sans Serif', 'Lucida Grande', 'Verdana', 'Geneva', 'Lucid', 'Arial', 'Helvetica', 'Avant Garde', sans-serif; text-anchor: middle" x="655.507262" y="278.409587" transform="rotate(-0 655.507262 278.409587)">Paired log-FID contrast; nominal 95% t CI</text>
    </g>
   </g>
   <g id="matplotlib.axis_4">
    <g id="ytick_9">
     <g id="line2d_51">
      <g>
       <use xlink:href="#m33ac69e95c" x="517.815005" y="49.486931" style="stroke: #000000; stroke-width: 0.8"/>
      </g>
     </g>
     <g id="text_32">
      <text style="font-size: 10px; font-family: 'DejaVu Sans', 'Bitstream Vera Sans', 'Computer Modern Sans Serif', 'Lucida Grande', 'Verdana', 'Geneva', 'Lucid', 'Arial', 'Helvetica', 'Avant Garde', sans-serif; text-anchor: end" x="510.815005" y="53.28615" transform="rotate(-0 510.815005 53.28615)">S (primary)</text>
     </g>
    </g>
    <g id="ytick_10">
     <g id="line2d_52">
      <g>
       <use xlink:href="#m33ac69e95c" x="517.815005" y="113.184104" style="stroke: #000000; stroke-width: 0.8"/>
      </g>
     </g>
     <g id="text_33">
      <text style="font-size: 10px; font-family: 'DejaVu Sans', 'Bitstream Vera Sans', 'Computer Modern Sans Serif', 'Lucida Grande', 'Verdana', 'Geneva', 'Lucid', 'Arial', 'Helvetica', 'Avant Garde', sans-serif; text-anchor: end" x="510.815005" y="116.983322" transform="rotate(-0 510.815005 116.983322)">M (secondary)</text>
     </g>
    </g>
    <g id="ytick_11">
     <g id="line2d_53">
      <g>
       <use xlink:href="#m33ac69e95c" x="517.815005" y="176.881276" style="stroke: #000000; stroke-width: 0.8"/>
      </g>
     </g>
     <g id="text_34">
      <text style="font-size: 10px; font-family: 'DejaVu Sans', 'Bitstream Vera Sans', 'Computer Modern Sans Serif', 'Lucida Grande', 'Verdana', 'Geneva', 'Lucid', 'Arial', 'Helvetica', 'Avant Garde', sans-serif; text-anchor: end" x="510.815005" y="180.680495" transform="rotate(-0 510.815005 180.680495)">C (secondary)</text>
     </g>
    </g>
    <g id="ytick_12">
     <g id="line2d_54">
      <g>
       <use xlink:href="#m33ac69e95c" x="517.815005" y="240.578449" style="stroke: #000000; stroke-width: 0.8"/>
      </g>
     </g>
     <g id="text_35">
      <text style="font-size: 10px; font-family: 'DejaVu Sans', 'Bitstream Vera Sans', 'Computer Modern Sans Serif', 'Lucida Grande', 'Verdana', 'Geneva', 'Lucid', 'Arial', 'Helvetica', 'Avant Garde', sans-serif; text-anchor: end" x="510.815005" y="244.377668" transform="rotate(-0 510.815005 244.377668)">H (supportive)</text>
     </g>
    </g>
   </g>
   <g id="LineCollection_1">
    <path d="M 574.050164 49.486931 
L 736.371283 49.486931 
" clip-path="url(#pfcb5f70d1d)" style="fill: none; stroke: #355070; stroke-width: 1.5"/>
   </g>
   <g id="line2d_55">
    <defs>
     <path id="m3920c8059c" d="M 0 4 
L 0 -4 
" style="stroke: #355070"/>
    </defs>
    <g clip-path="url(#pfcb5f70d1d)">
     <use xlink:href="#m3920c8059c" x="574.050164" y="49.486931" style="fill: #355070; stroke: #355070"/>
    </g>
   </g>
   <g id="line2d_56">
    <g clip-path="url(#pfcb5f70d1d)">
     <use xlink:href="#m3920c8059c" x="736.371283" y="49.486931" style="fill: #355070; stroke: #355070"/>
    </g>
   </g>
   <g id="LineCollection_2">
    <path d="M 581.543804 113.184104 
L 730.609978 113.184104 
" clip-path="url(#pfcb5f70d1d)" style="fill: none; stroke: #355070; stroke-width: 1.5"/>
   </g>
   <g id="line2d_57">
    <g clip-path="url(#pfcb5f70d1d)">
     <use xlink:href="#m3920c8059c" x="581.543804" y="113.184104" style="fill: #355070; stroke: #355070"/>
    </g>
   </g>
   <g id="line2d_58">
    <g clip-path="url(#pfcb5f70d1d)">
     <use xlink:href="#m3920c8059c" x="730.609978" y="113.184104" style="fill: #355070; stroke: #355070"/>
    </g>
   </g>
   <g id="LineCollection_3">
    <path d="M 567.279394 176.881276 
L 780.682042 176.881276 
" clip-path="url(#pfcb5f70d1d)" style="fill: none; stroke: #355070; stroke-width: 1.5"/>
   </g>
   <g id="line2d_59">
    <g clip-path="url(#pfcb5f70d1d)">
     <use xlink:href="#m3920c8059c" x="567.279394" y="176.881276" style="fill: #355070; stroke: #355070"/>
    </g>
   </g>
   <g id="line2d_60">
    <g clip-path="url(#pfcb5f70d1d)">
     <use xlink:href="#m3920c8059c" x="780.682042" y="176.881276" style="fill: #355070; stroke: #355070"/>
    </g>
   </g>
   <g id="LineCollection_4">
    <path d="M 530.332483 240.578449 
L 724.506057 240.578449 
" clip-path="url(#pfcb5f70d1d)" style="fill: none; stroke: #355070; stroke-width: 1.5"/>
   </g>
   <g id="line2d_61">
    <g clip-path="url(#pfcb5f70d1d)">
     <use xlink:href="#m3920c8059c" x="530.332483" y="240.578449" style="fill: #355070; stroke: #355070"/>
    </g>
   </g>
   <g id="line2d_62">
    <g clip-path="url(#pfcb5f70d1d)">
     <use xlink:href="#m3920c8059c" x="724.506057" y="240.578449" style="fill: #355070; stroke: #355070"/>
    </g>
   </g>
   <g id="line2d_63">
    <path d="M 646.25881 250.133025 
L 646.25881 39.932355 
" clip-path="url(#pfcb5f70d1d)" style="fill: none; stroke-dasharray: 3.7,1.6; stroke-dashoffset: 0; stroke: #808080"/>
   </g>
   <g id="line2d_64">
    <defs>
     <path id="m01ea70db45" d="M 0 3 
C 0.795609 3 1.55874 2.683901 2.12132 2.12132 
C 2.683901 1.55874 3 0.795609 3 0 
C 3 -0.795609 2.683901 -1.55874 2.12132 -2.12132 
C 1.55874 -2.683901 0.795609 -3 0 -3 
C -0.795609 -3 -1.55874 -2.683901 -2.12132 -2.12132 
C -2.683901 -1.55874 -3 -0.795609 -3 0 
C -3 0.795609 -2.683901 1.55874 -2.12132 2.12132 
C -1.55874 2.683901 -0.795609 3 0 3 
z
" style="stroke: #355070"/>
    </defs>
    <g clip-path="url(#pfcb5f70d1d)">
     <use xlink:href="#m01ea70db45" x="655.210723" y="49.486931" style="fill: #355070; stroke: #355070"/>
    </g>
   </g>
   <g id="line2d_65">
    <g clip-path="url(#pfcb5f70d1d)">
     <use xlink:href="#m01ea70db45" x="656.076891" y="113.184104" style="fill: #355070; stroke: #355070"/>
    </g>
   </g>
   <g id="line2d_66">
    <g clip-path="url(#pfcb5f70d1d)">
     <use xlink:href="#m01ea70db45" x="673.980718" y="176.881276" style="fill: #355070; stroke: #355070"/>
    </g>
   </g>
   <g id="line2d_67">
    <g clip-path="url(#pfcb5f70d1d)">
     <use xlink:href="#m01ea70db45" x="627.41927" y="240.578449" style="fill: #355070; stroke: #355070"/>
    </g>
   </g>
   <g id="patch_7">
    <path d="M 517.815005 250.133025 
L 517.815005 39.932355 
" style="fill: none; stroke: #000000; stroke-width: 0.8; stroke-linejoin: miter; stroke-linecap: square"/>
   </g>
   <g id="patch_8">
    <path d="M 517.815005 250.133025 
L 793.19952 250.133025 
" style="fill: none; stroke: #000000; stroke-width: 0.8; stroke-linejoin: miter; stroke-linecap: square"/>
   </g>
   <g id="text_36">
    <text style="font-size: 12px; font-family: 'DejaVu Sans', 'Bitstream Vera Sans', 'Computer Modern Sans Serif', 'Lucida Grande', 'Verdana', 'Geneva', 'Lucid', 'Arial', 'Helvetica', 'Avant Garde', sans-serif; text-anchor: middle" x="655.507262" y="33.932355" transform="rotate(-0 655.507262 33.932355)">Training seed is the unit of inference</text>
   </g>
  </g>
  <g id="text_37">
   <text style="font-size: 12px; font-family: 'DejaVu Sans', 'Bitstream Vera Sans', 'Computer Modern Sans Serif', 'Lucida Grande', 'Verdana', 'Geneva', 'Lucid', 'Arial', 'Helvetica', 'Avant Garde', sans-serif; text-anchor: middle" x="400.19976" y="16.318125" transform="rotate(-0 400.19976 16.318125)">q128: 32 trajectories, 96 blocks, n = 8</text>
  </g>
 </g>
 <defs>
  <clipPath id="p1b57f8bec9">
   <rect x="50.14375" y="39.932355" width="371.769095" height="210.20067"/>
  </clipPath>
  <clipPath id="pfcb5f70d1d">
   <rect x="517.815005" y="39.932355" width="275.384515" height="210.20067"/>
  </clipPath>
 </defs>
</svg>
